# xmcd
#
# Track frame offsets:
#	150
#	12302
#	25075
#	36901
#	49027
#	61770
#	73730
#	86979
#	101117
#	114632
#	126776
#	140800
#	155195
#	165417
#	179822
#	197377
#	209297
#	221100
#	233855
#	244708
#	255494
#	265802
#	275563
#	287644
#	295897
#	315008
#	329426
#	340388
#
# Disc length: 4684 seconds
#
# Revision: 0
# Processed by: cddbd v1.5.1PL2 Copyright (c) Steve Scherf et al.
# Submitted via: EasyCDDAExtractor 4.6.9.1
#
DISCID=b0124a1c
DTITLE=Johnny Cash - The Man In Black - 1963-1969 - CD 1
DYEAR=1995
DGENRE=Country
TTITLE0=Ring Of Fire
TTITLE1=The Matador
TTITLE2=I'd Still Be There
TTITLE3=Still In Town
TTITLE4=El Matador (spanish)
TTITLE5=Fuego D'Amor (Anillo De Fuego) (spanish)
TTITLE6=My Old Faded Rose
TTITLE7=It Ain't Me Babe
TTITLE8=Don't Think Twice, It's Alright
TTITLE9=One Too Many Mornings
TTITLE10=Mama, You've Been On My Mind
TTITLE11=The Long Black Veil
TTITLE12=The Wall
TTITLE13=Orange Blossom Special
TTITLE14=Troublesome Waters
TTITLE15=I Walk The Line
TTITLE16=Folsom Prison Blues
TTITLE17=Wreck Of The Old '97
TTITLE18=Hey Porter
TTITLE19=Big River
TTITLE20=All God's Children Ain't Free
TTITLE21=Amen
TTITLE22=When It's Springtime In Alaska
TTITLE23=You Wild Colorado
TTITLE24=Danny Boy
TTITLE25=I Still Miss Someone
TTITLE26=Give My Love To Rose
TTITLE27=Goodbye Little Darlin' Goodbye
EXTD=
EXTT0=
EXTT1=
EXTT2=
EXTT3=
EXTT4=
EXTT5=
EXTT6=
EXTT7=
EXTT8=
EXTT9=
EXTT10=
EXTT11=
EXTT12=
EXTT13=
EXTT14=
EXTT15=
EXTT16=
EXTT17=
EXTT18=
EXTT19=
EXTT20=
EXTT21=
EXTT22=
EXTT23=
EXTT24=
EXTT25=
EXTT26=
EXTT27=
PLAYORDER=
